<?xml version="1.0" standalone="no"?>
<!DOCTYPE svg PUBLIC "-//W3C//DTD SVG 20010904//EN"
 "http://www.w3.org/TR/2001/REC-SVG-20010904/DTD/svg10.dtd">
<svg version="1.0" xmlns="http://www.w3.org/2000/svg"
 width="2413.000000pt" height="2240.000000pt" viewBox="0 0 2413.000000 2240.000000"
 preserveAspectRatio="xMidYMid meet">

<g transform="translate(0.000000,2240.000000) scale(0.100000,-0.100000)"
fill="#000000" stroke="none">
<path d="M3510 20025 c-154 -25 -253 -56 -380 -117 -47 -23 -87 -44 -90 -48
-3 -3 -32 -23 -64 -44 -80 -53 -156 -116 -208 -172 -24 -26 -48 -52 -54 -58
-88 -92 -214 -326 -259 -481 -60 -209 -56 345 -52 -7131 3 -3761 8 -6875 11
-6919 4 -44 11 -111 15 -150 l8 -70 3 110 c2 61 5 126 7 145 3 19 7 3115 9
6880 2 4546 7 6876 14 6936 9 87 61 279 80 298 5 5 -2 -26 -16 -68 -58 -185
-54 453 -54 -8008 l0 -7760 24 6 c18 4 29 1 39 -15 14 -20 35 -10 22 10 -3 6
6 6 25 1 18 -5 30 -5 30 1 0 5 8 9 17 9 14 0 13 -3 -5 -16 -12 -8 -20 -19 -17
-24 3 -4 -1 -11 -7 -13 -8 -3 -6 -6 5 -6 11 -1 15 -6 11 -13 -4 -6 -3 -8 4 -5
5 4 8 16 5 26 -3 10 1 22 8 26 8 5 10 4 5 -4 -4 -6 0 -14 9 -17 14 -6 14 -9 3
-16 -10 -8 -10 -9 2 -5 9 2 14 13 12 28 -2 18 -1 21 7 10 13 -20 42 4 34 27
-6 14 -4 15 9 5 8 -7 18 -11 21 -8 4 3 5 2 2 -2 -3 -3 3 -12 13 -19 13 -9 19
-9 24 -1 5 8 8 6 8 -5 0 -10 -5 -18 -11 -18 -5 0 -7 -5 -3 -11 4 -7 1 -10 -7
-7 -8 3 -14 12 -13 20 1 7 -7 15 -16 15 -16 1 -16 -1 -1 -32 13 -25 20 -31 33
-24 9 5 19 23 23 40 6 28 8 29 22 12 8 -10 11 -12 7 -4 -5 11 -3 13 10 8 10
-4 15 -3 11 3 -3 6 1 10 9 10 9 0 16 -4 16 -8 0 -4 21 -5 48 -2 l47 5 5 7695
c5 7361 6 7698 23 7755 70 233 172 393 332 522 93 74 246 153 360 185 l80 23
10183 3 10182 2 0 250 0 250 -10272 -1 c-8077 -1 -10289 -4 -10348 -14z m-912
-720 c-6 -14 -13 -23 -15 -21 -5 5 15 46 22 46 3 0 -1 -11 -7 -25z m-27 -66
c-5 -13 -10 -19 -10 -12 -1 15 10 45 15 40 3 -2 0 -15 -5 -28z m124 -15787
c-5 -13 -8 -14 -15 -3 -5 8 -3 19 3 26 14 15 22 1 12 -23z m-114 15 c-6 -8 -7
-18 -3 -22 4 -5 1 -5 -6 -1 -10 6 -10 11 -1 22 6 8 14 14 16 14 3 0 0 -6 -6
-13z m135 -56 c-4 -5 -13 -8 -22 -4 -11 4 -12 8 -3 20 14 16 36 2 25 -16z m35
-4 c-22 -21 -23 -21 -19 -2 2 11 10 19 16 18 7 -2 12 2 12 9 0 6 3 8 7 4 4 -3
-3 -17 -16 -29z m73 24 c3 -5 -1 -14 -8 -20 -12 -10 -13 -8 -9 8 6 23 9 25 17
12z m44 -37 c-5 -26 -48 -32 -47 -7 0 10 3 13 6 6 2 -7 9 -13 15 -13 6 0 7 7
4 16 -3 9 -3 20 0 26 9 15 27 -7 22 -28z m-78 16 c0 -5 -5 -10 -11 -10 -5 0
-7 5 -4 10 3 6 8 10 11 10 2 0 4 -4 4 -10z"/>
<path d="M4237 18359 c-313 -41 -557 -324 -557 -643 1 -359 289 -646 649 -646
183 0 318 57 452 190 94 93 131 153 170 280 29 95 31 242 5 340 -86 318 -393
522 -719 479z m-144 -355 c92 -32 168 -110 201 -207 25 -75 23 -81 -29 -74
-105 15 -217 104 -254 203 -12 30 -21 66 -21 79 0 22 3 24 33 18 17 -3 49 -12
70 -19z m573 -11 c-12 -65 -55 -140 -107 -187 -50 -45 -138 -86 -184 -86 -34
0 -33 38 3 115 51 108 154 177 286 194 4 1 5 -16 2 -36z m-360 -344 c-9 -57
-41 -117 -90 -167 -48 -51 -101 -81 -175 -98 l-54 -13 7 46 c12 86 84 185 168
229 25 13 119 42 142 43 5 1 6 -17 2 -40z m181 -3 c89 -45 157 -136 178 -235
l7 -34 -46 5 c-62 7 -149 53 -193 101 -42 47 -83 131 -83 171 0 28 1 29 45 23
25 -4 66 -18 92 -31z"/>
<path d="M7670 17945 c0 -32 2 -35 30 -35 28 0 30 3 30 35 0 32 -2 35 -30 35
-28 0 -30 -3 -30 -35z"/>
<path d="M6550 17755 l0 -215 30 0 30 0 0 215 0 215 -30 0 -30 0 0 -215z"/>
<path d="M20060 17500 l0 -440 75 0 75 0 0 440 0 440 -75 0 -75 0 0 -440z"/>
<path d="M20340 17865 l0 -75 80 0 80 0 0 75 0 75 -80 0 -80 0 0 -75z"/>
<path d="M22110 17865 l0 -75 75 0 75 0 0 75 0 75 -75 0 -75 0 0 -75z"/>
<path d="M17307 17919 c-59 -14 -110 -44 -151 -89 -47 -52 -56 -77 -56 -151 0
-142 99 -219 319 -249 79 -11 148 -36 170 -63 7 -10 14 -35 15 -57 2 -74 -70
-120 -188 -120 -98 0 -166 51 -182 138 l-6 32 -79 0 c-76 0 -79 -1 -79 -23 0
-88 73 -198 161 -242 115 -59 283 -56 400 6 128 68 176 212 114 335 -44 85
-115 123 -275 145 -146 21 -210 56 -210 115 0 67 116 119 210 94 54 -14 110
-68 110 -104 0 -26 0 -26 81 -26 l82 0 -7 42 c-16 100 -91 184 -190 213 -54
16 -179 18 -239 4z"/>
<path d="M6815 17849 c-11 -6 -32 -25 -47 -42 l-27 -30 6 36 c5 36 5 37 -26
37 l-31 0 0 -155 0 -155 30 0 30 0 0 94 c0 80 3 98 23 127 29 44 69 59 105 39
34 -20 40 -44 41 -162 1 -98 1 -98 26 -98 l25 0 0 120 c0 65 -5 130 -11 143
-21 47 -96 71 -144 46z"/>
<path d="M7404 17841 c-104 -48 -112 -213 -14 -279 48 -32 137 -28 176 9 55
50 70 139 35 208 -37 72 -120 98 -197 62z m106 -46 c38 -20 50 -43 50 -100 0
-59 -40 -105 -90 -105 -47 0 -90 47 -90 99 0 55 14 87 47 105 36 19 47 19 83
1z"/>
<path d="M7859 17840 c-69 -36 -99 -145 -61 -220 26 -52 74 -80 140 -80 50 0
58 3 93 39 46 45 52 81 14 81 -15 0 -29 -8 -36 -22 -46 -86 -169 -48 -169 52
0 57 23 96 65 110 42 14 84 -2 100 -38 7 -15 18 -22 37 -22 33 0 35 13 8 58
-37 60 -122 78 -191 42z"/>
<path d="M8205 17846 c-86 -38 -116 -145 -68 -239 21 -42 69 -67 131 -67 45 0
57 4 86 33 19 17 37 42 41 55 6 19 3 22 -24 22 -17 0 -31 -4 -31 -10 0 -5 -9
-19 -20 -30 -41 -41 -127 -13 -145 48 -6 22 -6 22 115 22 l122 0 -7 43 c-10
58 -34 96 -75 118 -40 22 -83 24 -125 5z m98 -47 c21 -9 47 -46 47 -64 0 -3
-41 -5 -90 -5 l-91 0 16 31 c23 44 71 60 118 38z"/>
<path d="M8530 17849 c-58 -23 -83 -72 -64 -124 9 -22 51 -42 109 -50 64 -10
85 -21 85 -45 0 -25 -29 -40 -79 -40 -33 0 -44 5 -63 30 -13 18 -31 30 -45 30
-35 0 -29 -36 12 -77 35 -35 36 -35 106 -31 65 3 74 6 100 36 61 69 27 124
-91 146 -89 17 -111 40 -68 70 33 24 75 20 104 -9 14 -14 36 -25 49 -25 29 0
30 2 9 41 -25 50 -103 72 -164 48z"/>
<path d="M7004 17833 c3 -10 28 -79 54 -153 l48 -135 45 -3 44 -3 56 156 56
155 -31 0 c-31 0 -32 -1 -71 -117 -22 -65 -42 -129 -45 -143 -4 -19 -13 0 -39
80 -57 176 -59 180 -93 180 -23 0 -28 -4 -24 -17z"/>
<path d="M7670 17695 l0 -155 30 0 30 0 0 155 0 155 -30 0 -30 0 0 -155z"/>
<path d="M18870 17701 c-52 -19 -85 -46 -121 -101 -22 -33 -34 -20 -20 21 6
18 11 45 11 60 l0 29 -75 0 -75 0 0 -440 0 -440 75 0 76 0 -4 153 c-2 83 -7
162 -11 175 -14 37 16 26 46 -18 79 -115 264 -116 368 -4 69 75 85 121 85 249
0 100 -3 115 -28 167 -65 133 -199 194 -327 149z m86 -132 c125 -32 164 -230
65 -331 -75 -75 -198 -55 -251 42 -59 108 -10 259 95 289 41 12 40 12 91 0z"/>
<path d="M19635 17711 c-64 -16 -142 -77 -157 -122 -2 -7 -9 -10 -15 -6 -7 5
-7 18 3 44 7 21 13 48 14 61 0 21 -4 22 -80 22 l-80 0 0 -440 0 -440 80 0 80
0 0 139 c0 76 -5 152 -11 170 -6 18 -9 34 -6 37 3 3 29 -19 59 -49 74 -77 140
-93 247 -61 71 21 140 89 171 170 30 75 33 204 7 279 -25 72 -76 136 -133 167
-53 29 -131 42 -179 29z m100 -159 c96 -55 100 -264 8 -330 -60 -43 -148 -36
-207 16 -73 65 -72 230 2 295 52 47 134 54 197 19z"/>
<path d="M20823 17710 c-93 -20 -174 -85 -215 -175 -19 -42 -23 -67 -23 -150
0 -94 2 -105 34 -169 50 -101 127 -150 257 -163 145 -14 285 78 310 205 l7 32
-76 0 c-75 0 -75 0 -95 -34 -32 -54 -62 -69 -132 -64 -39 3 -70 11 -88 24 -30
23 -77 108 -67 124 4 6 87 10 236 10 l229 0 0 65 c0 73 -24 147 -64 200 -55
72 -206 118 -313 95z m154 -137 c24 -11 42 -30 54 -57 31 -68 36 -66 -137 -66
l-156 0 7 28 c10 42 52 91 88 101 51 15 106 12 144 -6z"/>
<path d="M21595 17711 c-59 -10 -99 -38 -131 -92 -30 -51 -51 -65 -39 -26 3
12 9 44 12 70 l6 48 -79 -3 -79 -3 0 -320 0 -320 78 -3 77 -3 0 168 c0 92 5
186 10 207 19 82 66 117 168 124 l63 4 -3 77 c-3 85 -4 85 -83 72z"/>
<path d="M22720 17711 c-69 -22 -136 -79 -162 -137 -6 -13 -17 -24 -25 -24
-16 0 -16 -4 2 45 8 22 14 57 15 78 l0 37 -80 0 -80 0 0 -325 0 -325 80 0 80
0 0 158 c0 185 13 243 67 303 44 49 95 65 149 47 67 -22 74 -51 77 -294 l2
-209 78 -3 77 -3 0 215 c0 118 -5 238 -11 265 -13 63 -57 125 -107 150 -45 23
-126 34 -162 22z"/>
<path d="M23941 17709 c-100 -20 -181 -84 -225 -178 -17 -37 -21 -65 -21 -146
0 -115 17 -164 80 -233 57 -64 132 -96 224 -97 42 0 88 3 104 8 27 7 27 8 27
93 l0 85 -26 -20 c-61 -48 -175 -29 -222 36 -65 92 -41 246 47 297 46 27 117
26 164 -2 l37 -21 0 84 0 83 -50 11 c-58 12 -77 12 -139 0z"/>
<path d="M17852 17473 c3 -233 4 -239 29 -294 33 -69 79 -106 152 -121 80 -17
150 6 206 67 23 25 47 56 53 70 6 14 17 25 25 25 16 0 16 5 -2 -54 -8 -27 -15
-62 -15 -78 l0 -28 80 0 80 0 0 325 0 325 -79 0 -79 0 -4 -182 c-3 -181 -3
-184 -32 -236 -48 -85 -128 -120 -196 -85 -53 27 -59 58 -59 296 l-1 207 -81
0 -81 0 4 -237z"/>
<path d="M20347 17703 c-4 -3 -7 -150 -7 -325 l0 -318 80 0 80 0 0 325 0 325
-73 0 c-41 0 -77 -3 -80 -7z"/>
<path d="M22110 17385 l0 -325 75 0 75 0 0 325 0 325 -75 0 -75 0 0 -325z"/>
<path d="M23102 17473 c44 -131 93 -277 110 -325 l30 -88 112 0 112 0 107 314
c59 173 107 320 107 325 0 7 -30 11 -79 11 l-79 0 -11 -32 c-64 -203 -141
-475 -141 -499 0 -19 -5 -29 -15 -29 -9 0 -15 9 -15 24 0 13 -30 122 -66 242
-37 121 -71 236 -76 257 l-10 37 -84 0 -83 0 81 -237z"/>
<path d="M6611 15942 c-52 -26 -74 -63 -79 -130 -5 -71 22 -133 68 -157 37
-19 123 -19 160 0 28 14 60 60 60 85 0 18 -38 10 -45 -10 -9 -29 -54 -60 -87
-60 -75 0 -123 60 -115 143 6 67 47 110 106 110 44 0 85 -28 97 -65 6 -20 44
-25 44 -5 0 24 -39 76 -69 92 -40 20 -98 19 -140 -3z"/>
<path d="M6870 15800 c0 -153 1 -160 20 -160 19 0 20 7 20 160 0 153 -1 160
-20 160 -19 0 -20 -7 -20 -160z"/>
<path d="M6970 15940 c0 -13 7 -20 20 -20 13 0 20 7 20 20 0 13 -7 20 -20 20
-13 0 -20 -7 -20 -20z"/>
<path d="M7590 15900 c0 -23 -4 -30 -20 -30 -11 0 -20 -7 -20 -15 0 -8 9 -15
20 -15 18 0 20 -7 20 -78 0 -98 14 -122 71 -122 50 0 56 27 7 32 l-33 3 0 80
0 80 33 3 c46 5 43 32 -3 32 -32 0 -35 2 -35 30 0 23 -4 30 -20 30 -16 0 -20
-7 -20 -30z"/>
<path d="M6970 15755 c0 -108 1 -115 20 -115 19 0 20 7 20 115 0 108 -1 115
-20 115 -19 0 -20 -7 -20 -115z"/>
<path d="M7097 15849 c-31 -23 -52 -86 -43 -122 3 -14 18 -39 32 -56 22 -27
32 -31 75 -31 40 0 55 5 74 25 14 13 25 29 25 35 0 17 -35 11 -53 -10 -9 -11
-28 -20 -42 -20 -26 0 -75 39 -75 60 0 6 34 10 91 10 l92 0 -6 38 c-13 79
-109 120 -170 71z m112 -33 c13 -14 20 -29 16 -35 -8 -14 -122 -14 -130 -1 -9
15 41 60 68 60 13 0 34 -11 46 -24z"/>
<path d="M7310 15755 c0 -108 1 -115 20 -115 18 0 20 7 20 74 0 64 3 76 25
100 13 15 35 26 49 26 40 0 56 -34 56 -122 0 -71 2 -78 20 -78 18 0 20 7 20
74 0 119 -21 156 -90 156 -23 0 -40 -9 -61 -31 l-29 -31 6 31 c6 27 4 31 -15
31 -20 0 -21 -4 -21 -115z"/>
<path d="M7776 15849 c-53 -42 -28 -94 54 -109 64 -12 79 -23 64 -48 -17 -26
-78 -28 -103 -3 -22 22 -51 28 -51 11 0 -6 11 -22 25 -35 19 -20 34 -25 73
-25 115 0 144 107 34 125 -58 10 -82 23 -82 45 0 13 9 22 26 26 28 7 74 -9 74
-26 0 -5 9 -10 20 -10 11 0 20 6 20 14 0 25 -50 56 -90 56 -23 0 -48 -8 -64
-21z"/>
<path d="M4262 15668 c-19 -19 -17 -571 2 -587 9 -7 38 -11 73 -9 l58 3 0 300
0 300 -60 3 c-38 2 -65 -2 -73 -10z m108 -293 l0 -265 -40 0 -40 0 0 265 0
265 40 0 40 0 0 -265z"/>
<path d="M4492 15478 c-17 -17 -17 -379 0 -396 12 -12 95 -16 122 -6 14 5 16
32 16 198 0 136 -4 196 -12 204 -7 7 -35 12 -63 12 -28 0 -56 -5 -63 -12z
m108 -198 l0 -170 -40 0 -40 0 0 170 0 170 40 0 40 0 0 -170z"/>
<path d="M4036 15324 c-22 -21 -23 -226 -2 -243 9 -7 38 -11 73 -9 l58 3 3
120 c2 104 0 121 -15 132 -24 18 -98 16 -117 -3z m104 -119 l0 -95 -40 0 -40
0 0 95 0 95 40 0 40 0 0 -95z"/>
<path d="M6616 14767 c-53 -29 -86 -93 -86 -162 0 -132 98 -214 227 -190 31 5
39 3 53 -15 12 -15 25 -21 45 -18 l28 3 -28 33 -28 33 20 22 c34 37 43 63 43
127 0 75 -25 129 -77 165 -51 34 -140 35 -197 2z m147 -31 c50 -20 71 -60 72
-131 0 -43 -6 -69 -18 -89 -19 -28 -19 -28 -33 -7 -10 13 -26 21 -45 21 l-30
0 20 -29 c12 -16 21 -32 21 -35 0 -3 -20 -6 -44 -6 -101 0 -156 111 -106 216
32 65 95 89 163 60z"/>
<path d="M7560 14726 c0 -30 -3 -35 -27 -38 -20 -2 -28 -9 -28 -23 0 -14 8
-21 28 -23 l27 -3 0 -92 c0 -51 4 -97 8 -104 10 -15 57 -33 88 -33 19 0 24 5
24 24 0 21 -6 25 -32 28 l-33 3 -3 88 -3 87 36 0 c31 0 35 3 35 25 0 22 -4 25
-35 25 -33 0 -35 2 -35 35 0 31 -3 35 -25 35 -22 0 -25 -4 -25 -34z"/>
<path d="M6942 14574 c3 -113 4 -116 31 -140 42 -36 90 -33 133 10 l34 34 0
-35 c0 -30 3 -34 23 -31 22 3 22 6 22 138 0 132 0 135 -22 138 -22 3 -23 0
-23 -68 0 -113 -42 -180 -104 -164 -39 9 -46 32 -46 138 l0 96 -26 0 -26 0 4
-116z"/>
<path d="M7292 14670 c-82 -50 -80 -190 2 -242 23 -14 43 -18 80 -15 42 4 55
10 83 41 32 35 39 58 34 121 -8 95 -115 146 -199 95z m103 -34 c40 -17 56 -60
44 -116 -10 -42 -32 -60 -75 -60 -45 0 -74 27 -80 75 -6 47 11 84 46 102 31
16 24 16 65 -1z"/>
<path d="M7772 14670 c-82 -50 -80 -190 2 -242 48 -30 121 -20 158 21 15 17
28 38 28 46 0 24 -40 17 -62 -10 -28 -36 -89 -35 -117 1 -39 49 -31 54 85 54
l106 0 -6 38 c-18 97 -112 142 -194 92z m107 -33 c13 -6 28 -22 32 -34 8 -23
7 -23 -72 -23 -76 0 -79 1 -69 19 13 25 49 51 70 51 8 0 26 -6 39 -13z"/>
<path d="M8064 14680 c-28 -11 -54 -48 -54 -75 0 -35 41 -65 104 -75 67 -11
76 -15 76 -40 0 -25 -58 -44 -93 -31 -15 6 -32 19 -39 31 -7 11 -23 20 -36 20
-20 0 -22 -4 -17 -22 13 -43 50 -70 102 -75 79 -8 133 29 133 90 0 35 -29 55
-96 68 -63 13 -84 24 -84 45 0 39 103 42 115 4 4 -13 15 -20 31 -20 33 0 31
25 -5 61 -24 23 -38 29 -73 28 -24 0 -53 -4 -64 -9z"/>
<path d="M19760 14494 l0 -65 -26 20 c-40 31 -80 27 -120 -13 -29 -29 -34 -41
-34 -80 0 -53 20 -100 49 -116 36 -19 90 -12 115 15 l23 25 -5 -25 c-3 -20 0
-25 17 -25 21 0 21 4 21 165 0 158 -1 165 -20 165 -18 0 -20 -7 -20 -66z m-25
-89 c50 -49 21 -135 -45 -135 -65 0 -94 87 -45 135 13 14 34 25 45 25 12 0 32
-11 45 -25z"/>
<path d="M17990 14390 c0 -153 1 -160 20 -160 19 0 20 7 20 160 0 153 -1 160
-20 160 -19 0 -20 -7 -20 -160z"/>
<path d="M19190 14495 c0 -28 -4 -35 -20 -35 -11 0 -20 -7 -20 -15 0 -8 9 -15
19 -15 17 0 19 -9 22 -86 4 -96 16 -114 76 -114 26 0 33 4 33 20 0 16 -7 20
-30 20 l-30 0 0 80 0 80 30 0 c20 0 30 5 30 15 0 10 -10 15 -30 15 -28 0 -30
3 -30 35 0 31 -3 35 -25 35 -22 0 -25 -4 -25 -35z"/>
<path d="M18159 14441 c-28 -29 -29 -29 -23 -5 5 21 3 24 -20 24 l-26 0 0
-115 0 -115 25 0 c25 0 25 1 25 78 0 88 16 122 56 122 33 0 44 -32 44 -126 0
-67 2 -74 20 -74 18 0 20 7 20 78 0 86 16 122 54 122 38 0 46 -19 46 -112 0
-81 2 -88 20 -88 19 0 20 7 20 95 0 88 -2 98 -25 120 -31 32 -70 32 -98 1
l-21 -24 -23 24 c-29 32 -58 30 -94 -5z"/>
<path d="M18540 14442 l-30 -30 0 24 c0 17 -6 24 -20 24 -19 0 -20 -7 -20
-160 0 -153 1 -160 20 -160 18 0 20 7 20 70 l0 69 25 -24 c33 -34 84 -33 124
1 36 30 48 80 32 133 -14 47 -39 70 -84 78 -31 5 -40 1 -67 -25z m80 -22 c38
-21 45 -94 12 -132 -33 -38 -107 -13 -112 37 -5 43 1 65 22 85 24 22 49 25 78
10z"/>
<path d="M18784 14451 c-69 -43 -70 -158 -2 -205 32 -23 100 -20 131 4 32 25
51 81 43 124 -14 75 -109 117 -172 77z m106 -41 c24 -24 27 -86 4 -118 -10
-15 -25 -22 -48 -22 -53 0 -86 53 -66 106 21 55 73 71 110 34z"/>
<path d="M19066 14449 c-21 -17 -26 -18 -26 -5 0 9 -8 16 -20 16 -19 0 -20 -7
-20 -115 0 -108 1 -115 20 -115 18 0 20 7 20 78 0 42 4 83 9 90 5 8 24 17 42
21 25 5 35 13 37 29 4 29 -26 30 -62 1z"/>
<path d="M19394 14460 c-38 -15 -64 -59 -64 -107 0 -79 38 -122 108 -123 35 0
49 6 73 29 36 36 37 51 4 51 -15 0 -25 -6 -25 -14 0 -31 -71 -35 -100 -6 -40
40 -27 49 68 52 l87 3 -4 30 c-5 43 -17 63 -51 80 -32 17 -64 18 -96 5z m88
-47 c35 -31 23 -43 -47 -43 -57 0 -64 2 -58 18 14 42 71 56 105 25z"/>
<path d="M4083 14038 c-5 -7 -22 -43 -36 -81 -24 -60 -27 -81 -27 -191 0 -106
2 -125 18 -139 16 -15 51 -17 288 -17 205 0 274 3 288 13 16 11 17 28 14 157
-3 138 -4 148 -33 205 l-30 60 -236 3 c-182 2 -239 -1 -246 -10z m489 -88 l27
-65 -99 -3 c-95 -3 -98 -4 -104 -27 -14 -56 -98 -61 -131 -8 l-20 32 -92 1
c-51 0 -93 2 -93 5 0 11 43 111 52 123 8 9 61 12 222 10 l210 -3 28 -65z
m-329 -140 c50 -53 126 -53 171 0 24 29 28 30 105 30 l81 0 0 -95 0 -95 -270
0 -270 0 0 95 0 95 78 0 c73 0 79 -2 105 -30z"/>
<path d="M6647 13406 c-82 -30 -123 -102 -115 -205 7 -94 62 -155 151 -167 87
-12 179 45 189 116 2 19 -2 26 -19 28 -17 3 -27 -6 -42 -35 -25 -51 -57 -67
-118 -60 -36 4 -54 12 -74 35 -57 64 -44 191 25 233 62 38 146 14 168 -48 10
-27 17 -33 41 -33 25 0 28 3 22 23 -13 42 -41 81 -70 98 -43 25 -113 32 -158
15z"/>
<path d="M6930 13230 l0 -190 25 0 25 0 0 190 0 190 -25 0 -25 0 0 -190z"/>
<path d="M7040 13390 c0 -27 3 -30 30 -30 27 0 30 3 30 30 0 27 -3 30 -30 30
-27 0 -30 -3 -30 -30z"/>
<path d="M8110 13390 c0 -27 3 -30 30 -30 27 0 30 3 30 30 0 27 -3 30 -30 30
-27 0 -30 -3 -30 -30z"/>
<path d="M9090 13390 c0 -25 4 -30 25 -30 21 0 25 5 25 30 0 25 -4 30 -25 30
-21 0 -25 -5 -25 -30z"/>
<path d="M7770 13350 c0 -36 -2 -40 -25 -40 -18 0 -25 -5 -25 -20 0 -15 7 -20
25 -20 25 0 25 0 25 -93 0 -119 11 -137 81 -137 42 0 49 3 49 19 0 16 -8 20
-37 23 l-38 3 -3 93 -3 92 41 0 c33 0 40 3 40 20 0 17 -7 20 -40 20 l-40 0 0
40 c0 36 -2 40 -25 40 -22 0 -25 -4 -25 -40z"/>
<path d="M17886 13375 c-67 -24 -131 -98 -146 -170 -4 -23 -12 -31 -33 -33
-19 -2 -27 -9 -27 -23 0 -18 9 -19 165 -19 158 0 165 1 165 20 0 19 -7 20
-110 20 l-111 0 19 28 c11 15 27 40 36 55 37 61 123 85 186 52 29 -15 70 -79
70 -110 0 -11 11 -15 40 -15 48 0 51 12 16 86 -47 102 -162 148 -270 109z"/>
<path d="M19037 13376 c-21 -8 -47 -22 -57 -31 -23 -21 -50 -76 -50 -104 0
-17 6 -21 35 -21 28 0 35 4 35 19 0 11 11 33 24 48 22 25 30 28 91 28 58 0 69
-3 86 -24 24 -30 24 -73 0 -95 -27 -24 -88 -45 -133 -46 -35 0 -38 -2 -38 -30
0 -29 2 -30 43 -30 49 -1 110 -21 138 -46 25 -23 25 -78 0 -103 -69 -69 -221
-30 -221 55 0 21 -5 24 -36 24 l-37 0 6 -42 c7 -54 33 -88 87 -115 49 -25 120
-30 182 -13 80 23 133 115 104 183 -16 38 -60 77 -87 77 -29 0 -23 16 11 30
48 20 70 55 70 112 0 43 -5 55 -33 83 -52 52 -141 69 -220 41z"/>
<path d="M19525 13372 c-86 -42 -129 -124 -129 -252 -1 -178 76 -280 210 -280
109 0 187 91 200 235 11 122 -29 229 -107 287 -38 29 -125 33 -174 10z m134
-67 c88 -45 103 -280 24 -367 -26 -29 -86 -41 -126 -24 -54 22 -80 75 -85 173
-6 119 17 188 73 221 28 16 81 15 114 -3z"/>
<path d="M20028 13380 c-63 -19 -118 -84 -118 -139 0 -17 6 -21 35 -21 28 0
35 4 35 19 0 11 11 33 24 48 22 25 30 28 91 28 58 0 69 -3 86 -24 24 -30 24
-73 0 -95 -27 -24 -88 -45 -133 -46 -35 0 -38 -2 -38 -29 0 -27 2 -28 60 -34
114 -12 162 -59 134 -132 -12 -31 -68 -49 -147 -46 -37 1 -87 51 -87 85 0 23
-4 26 -35 26 -33 0 -35 -2 -35 -34 0 -80 88 -146 194 -146 101 0 170 48 190
132 12 53 -46 138 -95 138 -29 0 -23 16 11 30 45 19 70 60 70 115 0 40 -5 52
-33 80 -48 48 -136 67 -209 45z"/>
<path d="M20680 13374 c-73 -32 -112 -90 -130 -195 -25 -144 34 -291 133 -328
64 -25 167 -2 209 45 10 11 27 42 40 69 31 69 32 227 1 295 -50 108 -156 156
-253 114z m131 -70 c73 -37 100 -217 49 -319 -33 -65 -80 -91 -138 -76 -72 20
-101 79 -101 206 -1 161 84 245 190 189z"/>
<path d="M21177 13375 c-75 -26 -117 -86 -137 -194 -17 -94 1 -192 48 -263 48
-73 161 -100 243 -58 132 68 160 343 47 466 -57 62 -122 78 -201 49z m122 -70
c74 -38 102 -217 51 -320 -49 -98 -150 -109 -208 -23 -23 36 -27 54 -31 131
-4 104 14 162 60 202 35 29 85 33 128 10z"/>
<path d="M18286 13238 c-9 -79 -16 -146 -16 -150 0 -5 14 -8 32 -8 22 0 42 9
64 31 27 26 40 31 82 31 27 0 59 -5 70 -11 47 -25 67 -113 38 -169 -19 -37
-56 -55 -111 -55 -55 0 -96 26 -110 71 -8 28 -13 32 -46 32 l-37 0 8 -37 c19
-82 73 -124 168 -131 119 -8 192 42 211 145 16 83 -9 149 -73 197 -41 31 -152
30 -196 -2 l-31 -23 6 33 c3 18 9 53 13 78 l8 45 122 3 122 3 0 29 0 30 -154
0 -153 0 -17 -142z"/>
<path d="M7050 13175 l0 -135 25 0 25 0 0 135 0 135 -25 0 -25 0 0 -135z"/>
<path d="M7211 13297 c-45 -23 -66 -63 -66 -127 0 -72 23 -109 82 -129 57 -20
116 -3 143 42 26 41 25 47 -4 47 -14 0 -30 -10 -40 -25 -23 -34 -77 -35 -111
0 -48 47 -36 55 80 55 115 0 112 -2 95 62 -15 52 -61 88 -113 88 -23 0 -53 -6
-66 -13z m106 -42 c11 -8 23 -24 26 -35 5 -19 1 -20 -74 -20 -80 0 -80 0 -68
23 26 47 75 61 116 32z"/>
<path d="M7440 13175 l0 -135 25 0 c25 0 25 2 25 78 0 112 38 165 106 148 34
-9 44 -42 44 -142 0 -83 0 -84 25 -84 25 0 25 0 25 95 0 136 -24 175 -105 175
-27 0 -44 -8 -66 -29 l-29 -29 0 29 c0 24 -4 29 -25 29 l-25 0 0 -135z"/>
<path d="M8110 13175 l0 -135 25 0 25 0 0 135 0 135 -25 0 -25 0 0 -135z"/>
<path d="M8230 13175 l0 -135 25 0 c25 0 25 2 25 78 0 111 38 165 105 148 31
-8 45 -52 45 -147 0 -78 0 -79 25 -79 25 0 25 1 25 90 0 138 -25 180 -105 180
-28 0 -45 -8 -70 -33 l-33 -33 5 33 c5 30 3 33 -21 33 l-26 0 0 -135z"/>
<path d="M8500 13305 c0 -4 21 -65 46 -136 l47 -129 38 0 c21 0 40 4 43 9 3 4
26 65 50 135 l45 126 -28 0 c-26 0 -29 -5 -67 -124 l-40 -124 -41 122 c-37
110 -43 121 -67 124 -14 2 -26 0 -26 -3z"/>
<path d="M8832 13285 c-39 -33 -56 -76 -50 -129 11 -93 87 -145 171 -115 104
36 121 197 27 253 -43 25 -113 21 -148 -9z m111 -27 c34 -18 46 -40 47 -84 0
-57 -30 -94 -76 -94 -81 0 -115 101 -55 161 32 31 50 35 84 17z"/>
<path d="M9090 13175 l0 -135 25 0 25 0 0 135 0 135 -25 0 -25 0 0 -135z"/>
<path d="M9239 13287 c-41 -27 -64 -90 -54 -143 3 -20 21 -52 40 -72 31 -34
38 -37 89 -37 49 0 59 4 85 30 16 17 32 40 36 53 5 19 3 22 -19 22 -14 0 -26
-4 -26 -10 0 -22 -41 -50 -75 -50 -64 0 -103 76 -70 139 29 57 99 65 131 16
10 -15 26 -25 40 -25 28 0 29 2 10 39 -33 63 -123 81 -187 38z"/>
<path d="M9539 13295 c-75 -41 -87 -159 -23 -226 51 -53 147 -46 188 13 23 32
20 48 -9 48 -14 0 -25 -4 -25 -9 0 -20 -33 -41 -66 -41 -38 0 -74 29 -74 60 0
19 7 20 100 20 l100 0 0 26 c0 40 -30 93 -61 109 -35 19 -96 19 -130 0z m116
-50 c39 -38 32 -45 -50 -45 -84 0 -96 12 -49 49 35 28 69 26 99 -4z"/>
<path d="M9804 13287 c-20 -17 -27 -33 -27 -57 0 -43 29 -67 91 -76 64 -9 84
-21 80 -47 -3 -19 -10 -22 -55 -25 -46 -3 -54 0 -69 22 -19 30 -54 35 -54 8 0
-74 133 -107 204 -51 20 16 26 29 26 59 0 33 -5 42 -28 54 -15 8 -46 17 -67
21 -62 10 -73 15 -79 30 -8 21 21 45 55 45 19 0 38 -9 53 -25 13 -14 31 -25
40 -25 25 0 19 38 -10 65 -38 35 -121 35 -160 2z"/>
<path d="M21945 13285 c-22 -8 -59 -34 -82 -58 -68 -72 -82 -166 -37 -255 41
-82 108 -122 206 -122 199 0 293 248 147 387 -64 61 -149 78 -234 48z m150
-54 c114 -52 141 -185 57 -274 -57 -60 -132 -74 -206 -37 -129 63 -124 251 8
311 52 23 90 23 141 0z"/>
<path d="M22000 13161 c0 -11 6 -21 13 -24 20 -7 37 4 37 24 0 14 -7 19 -25
19 -18 0 -25 -5 -25 -19z"/>
<path d="M22004 13087 c-3 -8 -4 -39 -2 -68 3 -46 6 -54 23 -54 18 0 20 7 20
65 0 54 -3 65 -18 68 -9 2 -20 -3 -23 -11z"/>
<path d="M17680 13070 c0 -15 7 -20 25 -20 16 0 28 -7 31 -17 17 -59 63 -130
100 -156 54 -38 144 -47 208 -23 54 21 111 81 125 133 17 59 15 63 -28 63 -36
0 -39 -2 -45 -35 -9 -46 -65 -105 -102 -107 -81 -4 -122 16 -155 76 -12 23
-28 48 -35 56 -11 13 0 15 97 12 105 -4 109 -3 109 17 0 20 -4 21 -165 21
-158 0 -165 -1 -165 -20z"/>
<path d="M18732 12893 c3 -45 5 -48 30 -46 l26 2 -24 -36 c-30 -45 -30 -53 1
-53 34 0 65 62 65 130 l0 50 -51 0 -50 0 3 -47z"/>
<path d="M20372 12893 l3 -48 48 -3 47 -3 0 50 0 51 -51 0 -50 0 3 -47z"/>
<path d="M4256 11973 c-163 -84 -231 -128 -234 -150 -5 -36 15 -63 48 -63 l30
0 0 -120 c0 -108 -2 -120 -18 -120 -34 0 -62 -29 -62 -65 0 -65 1 -65 304 -65
311 0 309 0 304 70 -3 41 -6 46 -35 55 l-33 9 0 118 c0 116 0 118 23 118 32 0
47 18 47 56 0 31 -5 35 -130 104 -181 98 -166 95 -244 53z m237 -95 c59 -33
107 -64 107 -69 0 -5 -114 -9 -271 -9 -212 0 -270 3 -267 13 3 6 63 44 134 83
148 83 110 85 297 -18z m-283 -238 l0 -120 -35 0 -35 0 0 120 0 120 35 0 35 0
0 -120z m200 0 l0 -120 -80 0 -80 0 0 120 0 120 80 0 80 0 0 -120z m110 0 l0
-120 -40 0 -40 0 0 120 0 120 40 0 40 0 0 -120z m75 -185 c0 -19 -8 -20 -267
-23 l-268 -2 0 25 0 25 268 -2 c259 -3 267 -4 267 -23z"/>
<path d="M6593 11326 c-35 -16 -53 -43 -53 -78 0 -45 26 -66 105 -83 71 -16
95 -32 95 -62 0 -26 -43 -53 -84 -53 -45 0 -86 30 -86 63 0 10 -8 17 -20 17
-14 0 -20 -7 -20 -24 0 -94 179 -127 230 -43 11 18 20 42 20 55 0 33 -41 70
-86 77 -22 3 -55 12 -74 19 -66 23 -44 86 31 86 38 0 79 -26 79 -50 0 -5 9
-10 19 -10 18 0 19 3 10 29 -6 16 -19 37 -29 46 -26 23 -97 29 -137 11z"/>
<path d="M7630 11180 c0 -136 2 -160 15 -160 13 0 15 24 15 160 0 136 -2 160
-15 160 -13 0 -15 -24 -15 -160z"/>
<path d="M7720 11320 c0 -15 7 -20 25 -20 18 0 25 5 25 20 0 15 -7 20 -25 20
-18 0 -25 -5 -25 -20z"/>
<path d="M6820 11165 c0 -46 5 -95 11 -109 24 -51 111 -55 141 -6 17 27 26 25
20 -5 -3 -20 0 -25 17 -25 20 0 21 5 21 115 0 108 -1 115 -20 115 -18 0 -20
-7 -20 -74 0 -90 -21 -126 -75 -126 -46 0 -55 20 -55 119 0 74 -2 81 -20 81
-18 0 -20 -7 -20 -85z"/>
<path d="M7090 11090 c0 -156 1 -160 21 -160 20 0 21 4 17 71 -4 68 -3 70 13
50 43 -52 113 -47 149 11 69 114 -54 251 -141 157 l-29 -31 6 31 c6 27 4 31
-15 31 -21 0 -21 -4 -21 -160z m165 97 c37 -54 6 -137 -52 -137 -79 0 -104
124 -30 155 36 15 63 9 82 -18z"/>
<path d="M7360 11090 c0 -156 1 -160 21 -160 20 0 21 4 17 69 l-4 69 22 -24
c31 -32 65 -39 104 -19 67 35 79 145 20 198 -39 35 -79 35 -120 1 l-31 -27 7
27 c5 22 3 26 -15 26 -20 0 -21 -4 -21 -160z m163 98 c25 -29 23 -92 -5 -118
-64 -60 -151 30 -107 111 22 42 79 45 112 7z"/>
<path d="M7730 11135 c0 -96 3 -115 15 -115 12 0 15 19 15 115 0 96 -3 115
-15 115 -12 0 -15 -19 -15 -115z"/>
<path d="M7861 11236 c-34 -19 -50 -54 -51 -108 0 -38 6 -54 28 -79 24 -27 36
-32 74 -33 36 -1 52 4 72 23 14 14 26 30 26 38 0 20 -34 15 -48 -7 -23 -38
-103 -17 -115 30 -5 19 -1 20 84 20 88 0 89 0 89 25 0 81 -87 131 -159 91z
m99 -36 c38 -38 27 -50 -45 -50 -73 0 -84 14 -39 49 33 26 58 27 84 1z"/>
<path d="M8060 11135 c0 -106 1 -115 19 -115 17 0 19 10 23 83 5 116 0 147
-23 147 -18 0 -19 -9 -19 -115z"/>
<path d="M8130 11230 c-26 -26 -27 -44 -1 -30 11 5 29 10 40 10 14 0 21 6 21
20 0 13 -7 20 -20 20 -11 0 -29 -9 -40 -20z"/>
<path d="M8246 11229 c-29 -23 -35 -69 -11 -89 8 -7 41 -17 72 -24 52 -10 58
-14 58 -36 0 -22 -5 -25 -42 -28 -32 -2 -47 2 -62 17 -21 21 -51 28 -51 13 0
-4 7 -18 16 -30 49 -71 190 -39 182 41 -3 33 -10 37 -118 66 -15 4 -26 15 -28
28 -2 16 3 23 27 28 30 6 71 -8 71 -25 0 -6 9 -10 20 -10 27 0 25 16 -5 45
-31 32 -91 34 -129 4z"/>
<path d="M4107 10463 c-4 -3 -7 -80 -7 -170 0 -156 1 -163 20 -163 19 0 20 7
20 155 l0 155 164 0 c133 0 166 3 176 15 11 13 -10 15 -177 15 -104 0 -193 -3
-196 -7z"/>
<path d="M4510 10430 c-12 -8 -10 -14 14 -39 l29 -31 -184 -2 -184 -3 -3 -167
-2 -168 -47 0 -46 0 21 23 c12 13 22 29 22 35 0 24 -27 11 -70 -33 l-44 -45
51 -52 c44 -44 53 -49 59 -34 4 11 -2 26 -17 42 l-24 25 45 -3 45 -3 3 -50 c2
-27 9 -53 15 -57 7 -4 94 -8 194 -8 152 0 184 3 197 16 13 13 16 45 16 195 0
98 -4 179 -8 179 -27 0 -32 -30 -32 -187 l0 -163 -175 0 -175 0 0 210 0 210
171 0 172 0 -27 -21 c-30 -23 -33 -37 -10 -46 15 -6 76 44 94 78 13 22 -78
112 -100 99z"/>
<path d="M7810 9985 l0 -195 25 0 25 0 0 195 0 195 -25 0 -25 0 0 -195z"/>
<path d="M7920 10150 c0 -27 3 -30 30 -30 27 0 30 3 30 30 0 27 -3 30 -30 30
-27 0 -30 -3 -30 -30z"/>
<path d="M8680 10150 c0 -25 4 -30 25 -30 21 0 25 5 25 30 0 25 -4 30 -25 30
-21 0 -25 -5 -25 -30z"/>
<path d="M9650 10151 c0 -28 3 -31 31 -31 27 0 30 3 27 28 -2 21 -9 28 -30 30
-25 3 -28 0 -28 -27z"/>
<path d="M6592 10150 c-41 -25 -56 -58 -48 -104 8 -43 50 -71 121 -81 28 -4
63 -14 78 -22 23 -12 28 -20 25 -46 -2 -26 -10 -36 -42 -51 -36 -17 -43 -18
-80 -5 -29 10 -45 23 -56 46 -11 23 -22 33 -39 33 -21 0 -23 -3 -17 -32 12
-61 66 -98 143 -98 165 0 211 190 52 215 -122 19 -156 43 -125 90 33 50 128
40 149 -15 8 -21 18 -30 34 -30 43 0 15 78 -37 105 -42 21 -118 19 -158 -5z"/>
<path d="M4275 10139 c-15 -23 15 -30 116 -27 84 2 104 6 104 18 0 12 -20 16
-107 18 -71 2 -109 -1 -113 -9z"/>
<path d="M6872 9954 c3 -113 4 -116 31 -140 42 -36 97 -33 136 7 l31 31 0 -31
c0 -26 4 -31 25 -31 l25 0 0 140 0 140 -25 0 c-24 0 -25 -2 -25 -74 0 -84 -9
-115 -41 -145 -29 -27 -63 -27 -89 1 -17 19 -20 35 -20 120 l0 98 -26 0 -26 0
4 -116z"/>
<path d="M7187 10063 c-4 -3 -7 -89 -7 -190 l0 -183 25 0 c25 0 25 1 25 79 l0
79 29 -29 c92 -92 230 38 178 168 -32 82 -133 108 -184 48 l-23 -26 0 30 c0
23 -5 31 -18 31 -10 0 -22 -3 -25 -7z m182 -62 c45 -45 33 -133 -20 -158 -59
-28 -129 37 -113 104 16 67 90 97 133 54z"/>
<path d="M7500 9881 l0 -191 26 0 26 0 -3 78 -4 79 28 -29 c64 -64 173 -14
184 84 7 60 -1 89 -33 127 -43 52 -112 53 -159 3 l-24 -26 2 29 c2 24 -2 31
-20 33 l-23 3 0 -190z m189 113 c47 -60 11 -157 -59 -157 -70 0 -106 97 -59
157 16 20 29 26 59 26 30 0 43 -6 59 -26z"/>
<path d="M7930 9931 l0 -141 25 0 26 0 -3 138 c-3 134 -4 137 -25 140 -23 3
-23 3 -23 -137z"/>
<path d="M8082 10050 c-62 -38 -81 -138 -39 -201 29 -43 60 -59 116 -59 36 0
49 6 77 34 19 19 34 39 34 45 0 20 -51 12 -69 -11 -25 -30 -79 -27 -108 7 -13
14 -23 30 -23 35 0 5 46 11 103 12 l102 3 -3 33 c-8 102 -105 154 -190 102z
m101 -31 c25 -14 37 -28 37 -46 0 -9 -22 -13 -76 -13 l-76 0 14 23 c14 21 53
47 71 47 5 0 18 -5 30 -11z"/>
<path d="M8320 9930 l0 -140 25 0 c25 0 25 1 25 90 0 83 2 93 25 115 13 14 36
25 50 25 20 0 25 5 25 25 0 35 -43 34 -75 -1 l-25 -27 0 27 c0 21 -5 26 -25
26 l-25 0 0 -140z"/>
<path d="M8680 9930 l0 -140 25 0 25 0 0 140 0 140 -25 0 -25 0 0 -140z"/>
<path d="M8800 9930 c0 -141 0 -141 23 -138 21 3 22 9 27 95 4 78 8 96 27 114
24 25 76 30 96 10 7 -7 14 -54 17 -114 5 -96 6 -102 28 -105 22 -3 22 -2 22
108 0 110 0 112 -29 141 -43 42 -92 40 -138 -6 l-34 -34 3 32 c2 27 -1 33 -19
35 -23 3 -23 3 -23 -138z"/>
<path d="M9070 10057 c0 -7 20 -69 45 -137 25 -68 45 -125 45 -127 0 -2 17 -3
38 -3 l38 0 47 133 c26 72 47 135 47 140 0 4 -11 7 -24 7 -22 0 -28 -11 -66
-126 l-42 -126 -41 126 c-37 113 -43 126 -64 126 -13 0 -23 -6 -23 -13z"/>
<path d="M9424 10060 c-70 -28 -99 -139 -57 -211 50 -85 191 -75 229 16 51
123 -54 243 -172 195z m106 -58 c26 -21 36 -87 18 -122 -21 -40 -60 -54 -102
-36 -37 15 -50 41 -48 95 3 69 79 106 132 63z"/>
<path d="M9654 10057 c-2 -7 -3 -69 -2 -138 3 -120 4 -124 26 -127 22 -3 22
-3 22 137 0 135 -1 141 -20 141 -11 0 -23 -6 -26 -13z"/>
<path d="M9813 10051 c-65 -41 -84 -137 -40 -202 31 -46 62 -61 121 -56 40 4
55 10 78 36 15 17 28 38 28 46 0 23 -47 19 -55 -4 -8 -25 -59 -43 -89 -31 -56
21 -74 104 -35 154 31 39 90 37 121 -4 25 -35 58 -40 58 -10 0 11 -13 34 -28
51 -37 42 -110 51 -159 20z"/>
<path d="M10102 10050 c-56 -35 -79 -127 -47 -190 25 -48 62 -70 117 -70 43 0
54 4 84 34 19 19 34 39 34 45 0 21 -49 11 -75 -15 -20 -20 -32 -24 -53 -20
-26 7 -72 48 -72 66 0 5 46 11 103 12 l102 3 -3 33 c-8 102 -105 154 -190 102z
m101 -31 c25 -14 37 -28 37 -46 0 -9 -22 -13 -76 -13 l-76 0 14 23 c14 21 53
47 71 47 5 0 18 -5 30 -11z"/>
<path d="M10390 10058 c-34 -19 -55 -58 -46 -92 8 -31 44 -50 118 -60 52 -8
62 -16 53 -46 -13 -41 -116 -34 -130 9 -6 21 -55 31 -55 11 0 -24 26 -63 51
-76 34 -17 105 -18 139 -1 54 27 65 103 18 128 -13 7 -47 17 -77 23 -86 18
-98 70 -15 70 26 0 42 -7 54 -22 20 -25 60 -30 60 -8 0 8 -10 27 -23 42 -28
32 -106 43 -147 22z"/>
<path d="M4270 10015 c0 -12 15 -15 75 -15 60 0 75 3 75 15 0 12 -15 15 -75
15 -60 0 -75 -3 -75 -15z"/>
<path d="M17822 9759 c-14 -5 -20 -13 -16 -20 4 -7 3 -9 -3 -6 -19 12 -62 -43
-68 -86 -24 -157 198 -236 270 -96 9 16 13 29 9 29 -4 0 -1 6 5 14 12 15 10
41 -8 91 -22 61 -123 101 -189 74z"/>
<path d="M17406 9578 c-8 -13 -24 -47 -36 -77 -18 -46 -20 -71 -18 -190 l3
-136 295 0 295 0 3 134 3 133 -23 -6 c-13 -3 -61 -6 -108 -6 -84 0 -85 -1
-102 -30 -9 -17 -29 -35 -43 -40 -34 -13 -72 3 -93 40 -17 30 -17 30 -109 30
-51 0 -93 2 -93 5 0 3 12 34 26 70 l26 65 129 0 c108 0 129 2 129 15 0 13 -22
15 -135 15 -129 0 -135 -1 -149 -22z m157 -213 c48 -60 140 -56 183 10 16 24
21 26 93 23 l76 -3 3 -97 3 -98 -271 0 -270 0 0 100 0 100 78 0 c76 0 77 0
105 -35z"/>
<path d="M20060 9410 l0 -190 25 0 c23 0 25 3 25 49 0 35 4 51 16 55 21 8 25
5 70 -54 30 -39 44 -50 67 -50 l28 0 -60 73 -60 74 57 56 57 57 -31 0 c-25 0
-42 -12 -90 -62 l-59 -63 3 123 4 122 -26 0 -26 0 0 -190z"/>
<path d="M19200 9570 c0 -16 8 -19 58 -22 l57 -3 3 -162 2 -163 25 0 25 0 0
165 0 165 60 0 c53 0 60 2 60 20 0 19 -7 20 -145 20 -137 0 -145 -1 -145 -20z"/>
<path d="M23280 9400 l0 -190 25 0 25 0 0 190 0 190 -25 0 -25 0 0 -190z"/>
<path d="M21174 9526 c-51 -23 -83 -119 -70 -210 12 -79 82 -122 160 -96 50
16 76 53 76 107 0 88 -96 136 -164 82 l-27 -21 7 28 c16 69 55 90 107 61 61
-36 92 -7 37 35 -34 25 -88 31 -126 14z m94 -152 c46 -32 14 -114 -43 -114
-29 0 -75 40 -75 65 0 24 46 65 72 65 13 0 34 -7 46 -16z"/>
<path d="M20965 9508 c-6 -13 -25 -27 -43 -33 -45 -13 -39 -39 11 -43 l37 -3
0 -105 0 -104 25 0 25 0 0 155 c0 154 0 155 -23 155 -14 0 -26 -9 -32 -22z"/>
<path d="M19540 9468 c-19 -13 -36 -34 -38 -46 -5 -30 19 -28 46 3 36 41 132
30 132 -16 0 -24 -35 -39 -91 -39 -41 0 -78 -14 -91 -34 -15 -22 -8 -83 10
-99 42 -39 142 -24 157 22 10 32 25 25 19 -9 -6 -27 -4 -30 21 -30 l27 0 -4
105 c-3 98 -5 107 -30 131 -38 39 -111 44 -158 12z m126 -166 c-19 -37 -68
-59 -104 -46 -58 20 -25 83 43 85 16 0 39 4 50 8 26 11 31 -9 11 -47z"/>
<path d="M19834 9476 c-34 -15 -44 -33 -44 -77 0 -35 28 -55 90 -65 59 -9 80
-20 80 -44 0 -41 -81 -54 -118 -20 -12 12 -22 25 -22 30 0 6 -9 10 -20 10 -12
0 -20 -7 -20 -18 0 -30 29 -61 69 -73 79 -24 161 17 161 80 0 38 -27 57 -100
71 -77 15 -105 46 -61 70 36 19 79 12 97 -15 18 -27 54 -34 54 -11 0 8 -10 27
-23 41 -28 33 -96 43 -143 21z"/>
<path d="M20373 9470 c-36 -22 -51 -60 -35 -94 10 -22 67 -46 111 -46 30 0 61
-18 61 -34 0 -22 -35 -46 -69 -46 -24 0 -41 8 -61 30 -28 30 -60 40 -60 20 0
-6 7 -24 15 -39 25 -49 108 -66 168 -35 40 21 47 31 47 70 0 42 -26 63 -96 74
-32 5 -65 16 -73 24 -13 14 -13 18 4 36 27 29 78 27 104 -6 12 -16 28 -24 40
-22 19 3 19 5 5 35 -26 53 -103 69 -161 33z"/>
<path d="M23405 9478 c-3 -8 -4 -70 -3 -139 l3 -124 25 0 c25 0 25 1 30 98 4
89 7 101 29 118 28 23 45 24 65 3 13 -12 16 -38 16 -120 0 -103 0 -104 24
-104 24 0 24 2 28 101 3 92 5 103 27 120 30 24 46 24 71 -1 17 -17 20 -33 20
-120 l0 -100 26 0 26 0 -4 116 c-3 113 -4 116 -31 140 -39 34 -82 32 -117 -5
l-27 -30 -22 30 c-29 40 -72 39 -112 -1 l-30 -29 3 27 c2 21 -2 28 -20 30 -12
2 -24 -3 -27 -10z"/>
<path d="M23850 9301 l0 -191 26 0 26 0 -3 78 -4 79 28 -29 c41 -41 95 -39
143 5 31 28 37 41 42 85 5 62 -9 103 -50 137 -46 39 -108 31 -150 -19 -17 -21
-17 -21 -15 9 2 24 -2 31 -20 33 l-23 3 0 -190z m189 113 c47 -60 11 -157 -59
-157 -70 0 -106 97 -59 157 16 20 29 26 59 26 30 0 43 -6 59 -26z"/>
<path d="M4216 8933 c-3 -4 -6 -30 -6 -59 0 -50 -1 -52 -32 -58 -44 -10 -69
-10 -95 -1 l-23 7 0 -242 0 -242 23 7 c12 4 32 7 45 6 31 -2 81 -3 117 -2 17
0 47 1 68 1 20 0 47 0 60 1 12 1 32 -2 45 -6 20 -7 22 -4 22 34 0 31 3 39 14
35 8 -3 28 2 45 11 24 12 36 13 52 5 47 -26 49 -18 49 250 0 269 0 267 -51
240 -14 -8 -27 -6 -50 6 -29 15 -34 15 -64 -2 -30 -16 -33 -16 -62 1 -28 16
-32 16 -61 1 -29 -15 -35 -15 -61 -2 -16 9 -31 12 -35 9z m157 -49 c31 -15 36
-15 65 0 29 15 35 15 63 1 17 -9 37 -14 45 -11 12 5 14 -27 14 -199 0 -172 -2
-204 -14 -199 -8 3 -28 -2 -44 -10 -59 -31 -62 -23 -62 176 0 168 -1 180 -17
172 -10 -4 -30 -7 -45 -6 -77 6 -94 5 -110 -2 -16 -7 -18 -3 -18 33 0 31 3 39
14 35 8 -3 27 1 43 10 15 8 29 15 30 16 1 0 18 -7 36 -16z m-90 -112 c28 14
37 14 58 2 13 -7 32 -13 42 -14 16 0 17 -15 17 -180 0 -165 -1 -180 -17 -180
-10 -1 -29 -7 -42 -14 -21 -12 -30 -12 -58 2 -30 14 -36 14 -66 0 -29 -14 -36
-14 -61 -1 -15 8 -34 12 -42 9 -12 -5 -14 24 -14 179 0 169 1 185 18 185 9 1
28 7 41 14 21 12 30 12 58 -2 30 -14 36 -14 66 0z"/>
<path d="M4160 8655 c0 -13 14 -15 93 -13 53 2 92 7 92 13 0 6 -39 11 -92 13
-79 2 -93 0 -93 -13z"/>
<path d="M4167 8594 c-4 -4 -7 -14 -7 -21 0 -11 19 -13 93 -11 74 2 92 6 92
18 0 12 -17 16 -85 18 -47 1 -89 0 -93 -4z"/>
<path d="M7810 8605 l0 -195 25 0 25 0 0 195 0 195 -25 0 -25 0 0 -195z"/>
<path d="M7920 8770 c0 -27 3 -30 30 -30 27 0 30 3 30 30 0 27 -3 30 -30 30
-27 0 -30 -3 -30 -30z"/>
<path d="M8680 8605 l0 -195 25 0 25 0 0 195 0 195 -25 0 -25 0 0 -195z"/>
<path d="M8790 8770 c0 -27 3 -30 30 -30 27 0 30 3 30 30 0 27 -3 30 -30 30
-27 0 -30 -3 -30 -30z"/>
<path d="M6574 8756 c-43 -43 -45 -83 -6 -126 21 -24 42 -33 101 -45 84 -18
101 -28 101 -61 0 -40 -33 -64 -88 -64 -57 0 -88 19 -97 60 -5 23 -12 30 -31
30 -53 0 -11 -100 54 -127 48 -20 131 -12 171 16 16 12 35 37 41 56 10 30 9
41 -7 72 -20 41 -45 54 -146 73 -68 14 -88 37 -63 75 32 48 116 45 144 -6 11
-19 25 -29 41 -29 20 0 22 3 17 28 -4 15 -20 39 -37 55 -26 24 -37 27 -95 27
-62 0 -68 -2 -100 -34z"/>
<path d="M9210 8725 c0 -31 -3 -35 -25 -35 -20 0 -25 -5 -25 -25 0 -20 5 -25
25 -25 25 0 25 -1 25 -92 0 -51 4 -98 8 -105 10 -15 57 -33 88 -33 19 0 24 5
24 24 0 21 -6 25 -32 28 l-33 3 -3 88 -3 87 36 0 c31 0 35 3 35 25 0 22 -4 25
-35 25 -33 0 -35 2 -35 35 0 31 -3 35 -25 35 -22 0 -25 -4 -25 -35z"/>
<path d="M6870 8590 c0 -138 23 -180 99 -180 20 0 43 11 66 31 l35 31 0 -32
c0 -27 3 -31 23 -28 21 3 22 6 25 141 l3 137 -24 0 c-24 0 -25 -3 -29 -90 -3
-70 -8 -94 -24 -111 -27 -31 -60 -41 -88 -28 -31 14 -36 34 -36 142 0 86 0 87
-25 87 l-25 0 0 -100z"/>
<path d="M7180 8500 l0 -190 25 0 c25 0 25 1 25 81 l0 82 24 -26 c83 -90 211
-3 191 131 -15 101 -120 148 -186 83 l-29 -29 0 29 c0 24 -4 29 -25 29 l-25 0
0 -190z m193 121 c28 -28 32 -90 8 -128 -18 -28 -27 -33 -59 -33 -64 0 -104
63 -81 129 20 58 89 74 132 32z"/>
<path d="M7500 8500 l0 -190 26 0 27 0 -5 83 -4 82 32 -32 c73 -75 184 -10
184 107 0 117 -120 185 -191 109 l-29 -31 6 31 c6 28 4 31 -20 31 l-26 0 0
-190z m188 114 c29 -33 30 -92 1 -128 -16 -20 -29 -26 -59 -26 -30 0 -43 6
-59 26 -39 49 -21 133 33 154 29 12 57 3 84 -26z"/>
<path d="M7930 8550 c0 -141 0 -141 23 -138 22 3 22 6 22 138 0 132 0 135 -22
138 -23 3 -23 3 -23 -138z"/>
<path d="M8091 8677 c-88 -45 -93 -195 -9 -247 61 -37 143 -18 173 40 20 38
19 40 -9 40 -14 0 -30 -10 -40 -25 -24 -36 -86 -35 -115 1 -39 49 -31 54 85
54 l106 0 -7 33 c-12 58 -16 66 -46 92 -34 28 -96 34 -138 12z m109 -47 c39
-39 27 -50 -55 -50 l-75 0 11 24 c21 45 85 60 119 26z"/>
<path d="M8320 8550 l0 -140 25 0 c25 0 25 1 25 86 0 112 16 144 73 144 22 0
27 4 27 25 0 36 -44 34 -79 -4 l-27 -29 4 29 c4 26 1 29 -22 29 l-26 0 0 -140z"/>
<path d="M8800 8549 c0 -140 0 -140 23 -137 21 3 22 6 25 141 l3 137 -26 0
-25 0 0 -141z"/>
<path d="M8944 8671 c-73 -44 -46 -118 49 -137 78 -16 87 -20 87 -44 0 -46
-97 -49 -126 -4 -20 29 -54 32 -54 5 0 -11 10 -32 23 -47 19 -22 34 -28 78
-31 73 -6 122 25 127 79 4 46 -28 73 -96 82 -58 7 -86 25 -77 48 8 19 55 32
85 23 11 -3 25 -15 30 -26 6 -10 20 -19 30 -19 30 0 25 34 -11 64 -38 32 -99
35 -145 7z"/>
<path d="M23250 8400 l0 -40 440 0 440 0 0 40 0 40 -440 0 -440 0 0 -40z"/>
<path d="M17124 7786 c-99 -44 -79 -143 34 -166 75 -16 92 -26 92 -55 0 -29
-26 -45 -73 -45 -33 0 -67 24 -67 48 0 7 -14 12 -31 12 -27 0 -30 -3 -24 -22
27 -87 160 -115 227 -48 30 30 35 63 17 103 -13 29 -43 44 -102 53 -23 4 -50
11 -59 16 -21 10 -23 39 -6 56 25 25 108 8 108 -23 0 -10 10 -15 31 -15 27 0
30 3 23 23 -10 32 -25 48 -61 64 -40 16 -69 16 -109 -1z"/>
<path d="M18170 7640 l0 -160 30 0 30 0 0 160 0 160 -30 0 -30 0 0 -160z"/>
<path d="M18280 7775 c0 -20 5 -25 25 -25 20 0 25 5 25 25 0 20 -5 25 -25 25
-20 0 -25 -5 -25 -25z"/>
<path d="M19056 7704 c-38 -46 -22 -66 19 -24 l30 31 27 -33 c21 -26 29 -31
39 -21 10 10 6 20 -21 48 -19 19 -41 35 -49 34 -9 0 -29 -16 -45 -35z"/>
<path d="M17730 7713 c-8 -3 -25 -15 -37 -26 l-23 -20 0 21 c0 17 -6 22 -25
22 l-25 0 0 -160 0 -160 25 0 c24 0 25 2 25 67 l0 66 23 -21 c33 -30 69 -36
107 -17 82 42 74 194 -12 224 -34 12 -36 12 -58 4z m50 -61 c45 -36 20 -132
-34 -132 -54 0 -87 60 -60 111 21 42 58 50 94 21z"/>
<path d="M17993 7705 c-18 -8 -33 -19 -33 -25 0 -5 -4 -10 -9 -10 -5 0 -7 9
-4 20 4 16 0 20 -21 20 l-26 0 0 -160 0 -160 26 0 c26 0 26 1 22 65 -2 36 -2
65 0 65 2 0 12 -10 22 -22 13 -17 28 -23 60 -23 35 0 47 6 71 33 25 27 29 41
29 87 0 46 -4 60 -27 84 -34 37 -68 45 -110 26z m67 -55 c42 -42 13 -130 -42
-130 -31 0 -68 38 -68 70 0 37 36 80 66 80 13 0 33 -9 44 -20z"/>
<path d="M18442 7709 c-65 -19 -93 -119 -52 -186 22 -36 82 -60 125 -49 28 7
75 48 75 66 0 16 -57 12 -64 -5 -8 -22 -62 -19 -86 5 -34 34 -24 40 70 40 101
0 105 4 76 75 -21 50 -80 72 -144 54z m92 -61 c15 -25 5 -29 -58 -26 l-57 3
17 23 c12 18 24 22 51 20 20 -2 41 -10 47 -20z"/>
<path d="M18740 7713 c-8 -3 -26 -17 -38 -31 l-24 -27 5 28 c4 24 1 27 -24 27
l-29 0 0 -115 0 -115 30 0 30 0 0 73 c0 80 15 107 58 107 18 0 22 6 22 30 0
30 -3 33 -30 23z"/>
<path d="M17350 7616 c0 -106 12 -131 67 -142 28 -6 38 -1 69 30 l36 36 -4
-30 c-4 -27 -2 -30 24 -30 l28 0 0 115 0 115 -30 0 -30 0 0 -69 c0 -77 -23
-121 -64 -121 -38 0 -46 19 -46 107 0 82 0 83 -25 83 -25 0 -25 0 -25 -94z"/>
<path d="M18280 7595 l0 -115 25 0 25 0 0 115 0 115 -25 0 -25 0 0 -115z"/>
<path d="M19030 7517 c0 -7 15 -28 34 -46 29 -28 37 -31 54 -22 19 10 62 62
62 75 0 15 -29 4 -50 -19 l-24 -25 -26 25 c-28 27 -50 32 -50 12z"/>
<path d="M4213 7345 c-64 -32 -116 -91 -137 -153 -20 -57 -20 -105 -1 -168 8
-27 11 -50 7 -52 -46 -16 -57 -29 -60 -68 -5 -62 9 -67 108 -37 115 34 280 35
385 3 110 -34 110 -34 113 27 3 50 3 51 -32 63 l-35 11 15 36 c22 52 20 151
-4 205 -22 51 -77 110 -125 135 -18 9 -64 18 -107 20 -66 4 -81 1 -127 -22z
m218 -36 c113 -57 157 -195 100 -307 -37 -72 -43 -74 -205 -75 -165 0 -166 0
-202 78 -94 200 113 404 307 304z m-302 -383 c9 -11 5 -16 -20 -25 -42 -15
-49 -14 -49 4 0 9 10 20 23 25 30 12 33 12 46 -4z m446 2 c14 -6 25 -17 25
-25 0 -16 -4 -16 -53 -2 -32 8 -36 13 -26 25 14 17 21 17 54 2z"/>
<path d="M4277 7224 c-15 -14 -29 -36 -33 -48 -4 -11 -11 -24 -17 -28 -7 -4
-6 -12 2 -22 9 -11 10 -16 2 -16 -6 0 -11 -7 -11 -15 0 -8 4 -15 8 -15 4 0 14
-16 21 -36 21 -58 106 -81 142 -38 17 20 -5 44 -23 26 -18 -18 -45 -15 -68 8
-29 29 -25 40 15 40 24 0 35 5 35 15 0 10 -11 15 -35 15 -19 0 -35 5 -35 10 0
6 20 10 45 10 25 0 45 5 45 10 0 6 -20 10 -45 10 -49 0 -53 4 -29 39 14 19 22
22 54 17 45 -7 56 1 33 26 -24 27 -75 23 -106 -8z"/>
<path d="M4170 5865 c-11 -13 -9 -25 15 -75 l29 -60 -32 -42 c-106 -142 -125
-178 -126 -237 0 -64 27 -126 70 -160 25 -20 39 -21 214 -21 l188 0 32 36 c40
46 50 73 50 135 0 61 -14 89 -96 193 -35 45 -64 87 -64 94 0 7 9 31 21 53 11
22 19 53 17 67 l-3 27 -151 3 c-128 2 -153 0 -164 -13z m280 -30 c0 -3 -11
-28 -25 -56 l-26 -50 -75 3 -75 3 -24 53 -24 52 124 0 c69 0 125 -2 125 -5z
m39 -227 c83 -107 100 -149 82 -208 -6 -22 -22 -52 -36 -67 l-23 -28 -175 0
c-193 0 -194 0 -228 66 -23 47 -24 99 -3 142 14 28 121 177 127 177 1 0 2 -25
2 -55 0 -48 4 -58 32 -86 21 -22 37 -30 49 -25 15 6 14 10 -13 39 -38 39 -47
66 -34 100 9 23 17 26 68 30 32 2 63 4 69 5 6 1 43 -39 83 -90z"/>
<path d="M17650 5656 l0 -196 25 0 c25 0 25 1 25 80 0 115 21 150 90 150 41 0
50 -24 50 -134 0 -96 0 -96 25 -96 l25 0 0 109 c0 94 -3 112 -20 134 -39 49
-124 42 -162 -12 -12 -16 -13 -7 -13 68 0 82 -1 86 -22 89 l-23 3 0 -195z"/>
<path d="M19347 5843 c-4 -3 -7 -17 -7 -30 0 -19 5 -23 30 -23 27 0 30 3 30
30 0 25 -4 30 -23 30 -13 0 -27 -3 -30 -7z"/>
<path d="M17240 5695 c0 -142 -1 -147 -25 -170 -13 -14 -31 -25 -40 -25 -23 0
-65 45 -65 70 0 15 -6 20 -25 20 -20 0 -25 -5 -25 -26 0 -60 45 -103 107 -104
54 0 86 15 106 50 14 23 17 56 17 179 l0 151 -25 0 -25 0 0 -145z"/>
<path d="M18420 5650 l0 -192 93 4 c108 4 150 21 187 75 21 31 25 48 25 112 0
137 -51 182 -212 189 l-93 4 0 -192z m214 108 c48 -48 55 -116 21 -201 -12
-29 -60 -47 -125 -47 l-60 0 0 140 0 140 66 0 c61 0 68 -2 98 -32z"/>
<path d="M17410 5722 c-62 -30 -89 -126 -55 -192 25 -48 62 -70 116 -70 42 0
55 5 86 34 33 30 37 39 40 92 5 71 -19 117 -72 140 -45 18 -72 18 -115 -4z
m119 -58 c56 -71 -8 -190 -84 -156 -59 27 -73 125 -25 164 34 27 84 23 109 -8z"/>
<path d="M18032 5705 l-38 -34 4 29 c4 27 1 30 -22 30 l-26 0 0 -135 0 -135
24 0 c23 0 24 3 28 89 3 78 6 93 27 115 17 18 35 26 57 26 51 0 64 -27 64
-137 0 -93 0 -93 25 -93 25 0 25 0 25 95 0 111 -16 160 -55 175 -46 17 -74 11
-113 -25z"/>
<path d="M18833 5725 c-51 -22 -71 -75 -28 -75 15 0 25 6 25 14 0 17 22 26 65
26 48 0 65 -9 65 -35 0 -25 -29 -35 -100 -35 -55 0 -90 -31 -90 -80 0 -30 6
-43 26 -59 47 -37 125 -24 157 27 l18 27 -7 -37 c-6 -36 -5 -38 20 -38 l26 0
0 106 c0 58 -5 114 -11 126 -13 23 -67 48 -106 48 -15 -1 -42 -7 -60 -15z
m127 -144 c0 -11 -10 -32 -23 -47 -43 -50 -144 -29 -111 23 9 15 64 32 127 42
4 0 7 -8 7 -18z"/>
<path d="M19503 5725 c-44 -23 -61 -67 -39 -100 20 -30 41 -40 111 -52 41 -6
51 -12 53 -30 7 -51 -108 -57 -130 -7 -6 13 -19 24 -30 24 -30 0 -22 -44 13
-74 24 -21 41 -26 84 -26 70 0 115 34 115 86 0 41 -25 60 -100 74 -65 12 -90
31 -70 54 22 27 110 19 110 -10 0 -8 10 -14 25 -14 32 0 32 20 2 55 -29 34
-97 43 -144 20z"/>
<path d="M19050 5721 c0 -8 58 -174 81 -233 10 -24 17 -28 48 -28 l37 0 44
123 c24 67 46 128 48 135 3 10 -3 13 -23 10 -27 -3 -31 -10 -68 -121 l-39
-119 -40 121 c-36 111 -41 121 -64 121 -13 0 -24 -4 -24 -9z"/>
<path d="M19350 5595 l0 -135 25 0 25 0 0 135 0 135 -25 0 -25 0 0 -135z"/>
<path d="M17922 3283 c0 -59 3 -93 5 -75 3 20 10 32 19 32 12 0 14 14 12 72
-2 60 -6 73 -20 76 -16 3 -18 -7 -16 -105z"/>
<path d="M19371 3313 c0 -53 3 -72 9 -58 7 17 9 17 9 3 1 -10 5 -18 10 -18 4
0 9 34 10 75 2 69 0 75 -19 75 -18 0 -20 -6 -19 -77z"/>
<path d="M17080 3300 c0 -73 2 -80 20 -80 18 0 20 7 20 60 l0 60 79 0 c55 0
82 -4 90 -14 13 -16 61 -27 61 -15 0 5 -4 9 -10 9 -5 0 -9 6 -7 13 1 6 -4 11
-11 9 -8 -1 -11 2 -7 7 12 20 -36 31 -134 31 l-101 0 0 -80z"/>
<path d="M18380 3352 c0 -16 8 -53 17 -83 l17 -54 7 45 c4 25 8 62 8 83 1 33
-2 37 -24 37 -21 0 -25 -5 -25 -28z"/>
<path d="M18620 3295 c0 -50 4 -85 10 -85 6 0 11 15 11 33 1 17 3 24 6 15 11
-41 23 -13 23 52 0 68 -1 70 -25 70 -25 0 -25 -1 -25 -85z"/>
<path d="M2506 3363 c-10 -11 -7 -53 5 -53 5 0 7 5 4 10 -4 6 -2 17 5 25 11
13 -1 30 -14 18z"/>
<path d="M2587 3353 c-4 -3 -7 -13 -7 -22 1 -13 3 -13 11 2 11 19 8 33 -4 20z"/>
<path d="M17735 3336 c0 -13 3 -28 8 -32 4 -4 7 -11 7 -16 0 -4 -3 -7 -7 -7
-37 6 -63 -3 -63 -21 0 -15 7 -20 29 -20 23 0 31 -5 34 -22 l4 -23 2 23 c1 20
6 22 51 22 43 0 50 3 50 20 0 17 -7 20 -43 20 l-43 0 4 40 c4 34 1 40 -15 40
-13 0 -19 -7 -18 -24z"/>
<path d="M2542 3314 c9 -3 19 -13 22 -22 3 -12 4 -12 3 3 -1 12 -10 21 -22 22
-15 1 -15 0 -3 -3z"/>
<path d="M2840 3295 c5 -6 6 -16 2 -21 -4 -4 2 -2 13 6 11 8 21 15 23 16 2 1
-9 4 -23 6 -19 4 -23 2 -15 -7z"/>
<path d="M2623 3286 c-30 -14 -29 -24 2 -18 14 2 25 11 25 18 0 8 -1 13 -2 13
-2 -1 -13 -6 -25 -13z"/>
<path d="M17314 3291 c4 -6 2 -11 -4 -11 -6 0 -8 -4 -5 -10 3 -5 2 -10 -2 -10
-5 0 -9 -9 -10 -20 -2 -17 1 -18 18 -9 12 6 18 17 15 25 -3 8 0 13 7 11 7 -1
12 5 12 13 0 8 -8 16 -19 18 -11 3 -16 0 -12 -7z"/>
<path d="M17507 3263 c4 -10 2 -14 -4 -10 -6 4 -13 0 -17 -8 -3 -8 -11 -15
-18 -15 -9 0 -9 3 0 12 21 21 13 32 -8 13 -29 -27 -3 -40 38 -20 18 10 48 14
76 12 31 -3 46 -1 43 7 -4 13 -40 24 -84 25 -26 1 -31 -2 -26 -16z"/>
<path d="M17999 3262 c-11 -7 -17 -18 -13 -24 4 -6 10 -6 17 1 14 14 53 14 78
0 14 -7 24 -7 33 0 7 6 17 7 22 3 5 -4 0 3 -10 16 -16 18 -28 22 -64 20 -25
-2 -53 -9 -63 -16z"/>
<path d="M18741 3258 c0 -22 1 -22 9 -3 7 16 9 12 10 -20 2 -35 3 -37 10 -15
14 44 11 60 -10 60 -14 0 -20 -6 -19 -22z"/>
<path d="M18947 3260 c3 -11 12 -20 19 -20 8 0 14 9 14 20 0 13 -7 20 -19 20
-14 0 -18 -5 -14 -20z"/>
<path d="M19151 3273 c36 -3 49 -9 57 -26 7 -15 11 -17 11 -6 1 26 -22 39 -68
37 l-46 -2 46 -3z"/>
<path d="M19268 3262 c4 -11 1 -13 -7 -7 -10 6 -11 3 -2 -14 7 -11 14 -21 17
-21 3 0 2 5 -1 10 -3 6 -1 10 4 10 6 0 11 8 11 18 0 10 -6 19 -14 19 -8 0 -12
-6 -8 -15z"/>
<path d="M19449 3260 c-13 -10 -18 -19 -11 -20 6 0 12 5 12 11 0 6 7 8 16 5 9
-4 23 -1 32 6 12 11 17 9 30 -10 8 -12 21 -22 29 -22 8 0 12 -4 8 -9 -3 -5 -1
-12 4 -16 6 -3 8 3 6 15 -2 11 2 20 8 20 7 1 1 10 -12 20 -14 12 -38 20 -61
20 -23 0 -47 -8 -61 -20z m118 -6 c-3 -3 -12 -4 -19 -1 -8 3 -5 6 6 6 11 1 17
-2 13 -5z"/>
<path d="M19765 3271 l20 -10 -20 -2 c-11 -1 -31 -2 -45 -3 -14 -1 -25 -5 -25
-11 0 -5 -4 -16 -9 -23 -14 -22 -1 -23 23 -1 26 24 90 36 116 21 10 -5 26 -7
37 -4 18 4 18 5 1 17 -10 7 -41 16 -68 19 -35 4 -44 3 -30 -3z"/>
<path d="M20001 3271 c-11 -7 -11 -10 0 -17 7 -4 14 -3 17 4 2 7 19 12 38 12
20 0 33 -3 30 -8 -2 -4 10 -17 28 -29 24 -15 37 -18 47 -11 11 8 10 9 -4 4
-15 -5 -17 -2 -12 13 3 11 1 22 -5 26 -5 3 -10 0 -10 -7 -1 -9 -5 -7 -14 5
-14 18 -89 24 -115 8z"/>
<path d="M2822 3250 c0 -14 2 -19 5 -12 2 6 2 18 0 25 -3 6 -5 1 -5 -13z"/>
<path d="M19086 3261 c-4 -7 -5 -15 -2 -18 9 -9 19 4 14 18 -4 11 -6 11 -12 0z"/>
<path d="M2750 3249 c0 -5 5 -7 10 -4 6 3 10 8 10 11 0 2 -4 4 -10 4 -5 0 -10
-5 -10 -11z"/>
<path d="M19988 3223 c5 -24 6 -25 12 -8 8 21 4 35 -9 35 -5 0 -6 -12 -3 -27z"/>
<path d="M2590 3236 c0 -2 7 -7 16 -10 8 -3 12 -2 9 4 -6 10 -25 14 -25 6z"/>
<path d="M2715 3220 c-3 -6 1 -7 9 -4 18 7 21 14 7 14 -6 0 -13 -4 -16 -10z"/>
<path d="M17618 3198 c2 -15 5 -28 7 -28 2 0 5 13 7 28 2 17 -1 29 -7 29 -6 0
-9 -12 -7 -29z"/>
<path d="M18131 3213 c7 -12 15 -20 18 -17 3 2 -3 12 -13 22 -17 16 -18 16 -5
-5z"/>
<path d="M19055 3220 c-3 -5 -2 -10 4 -10 5 0 13 5 16 10 3 6 2 10 -4 10 -5 0
-13 -4 -16 -10z"/>
<path d="M17950 3209 c0 -5 5 -7 10 -4 6 3 10 8 10 11 0 2 -4 4 -10 4 -5 0
-10 -5 -10 -11z"/>
<path d="M19591 3204 c0 -11 3 -14 6 -6 3 7 2 16 -1 19 -3 4 -6 -2 -5 -13z"/>
<path d="M17431 3194 c0 -11 3 -14 6 -6 3 7 2 16 -1 19 -3 4 -6 -2 -5 -13z"/>
<path d="M18498 3203 c12 -2 32 -2 45 0 12 2 2 4 -23 4 -25 0 -35 -2 -22 -4z"/>
<path d="M19400 3200 c0 -5 5 -10 11 -10 5 0 7 5 4 10 -3 6 -8 10 -11 10 -2 0
-4 -4 -4 -10z"/>
<path d="M18146 3167 c3 -10 9 -15 12 -12 3 3 0 11 -7 18 -10 9 -11 8 -5 -6z"/>
</g>
</svg>
